<?xml version="1.0" encoding="UTF-8"?>
<svg id="Layer_1" data-name="Layer 1" xmlns="http://www.w3.org/2000/svg" viewBox="0 0 829.5 115.5">
  <defs>
    <style>
      .cls-1 {
        fill: #359afe;
      }

      .cls-2 {
        fill: #f9fafa;
      }

      .cls-3 {
        fill: #20262c;
      }

      .cls-4 {
        fill: #262c32;
      }

      .cls-5 {
        fill: #f9fcfe;
      }

      .cls-6 {
        fill: #379bfe;
      }

      .cls-7 {
        fill: #1f252b;
      }

      .cls-8 {
        fill: #21262c;
      }
    </style>
  </defs>
  <path class="cls-3" d="M382.5,7l18.86,71.89c.69,3.07,1.77,13.18,2.88,15.12.14.24.63.64.75.49,5.57-29.62,15.95-58.06,23.45-87.21l16.25-.32,24.56,88.04c5.5-29.72,14.32-58.73,21.75-88.01h16l-29.47,106.28c-.65.45-14.1.44-15.81.25-.72-.08-1.32-.05-1.68-.82l-23.78-82.22c-5.94,27.67-15.38,54.38-22.88,81.63l-.87,1.13c-.73.36-14.84.51-16.26.25-.58-.11-.97-.21-1.17-.83l-29.08-105.67h16.5Z"/>
  <path class="cls-1" d="M707.75,113.5l-.69-1.17,41.69-104.83c.98-1.17,13.76-.19,16.2-.44l40.98,105.29c.21.4-.52,1.15-.68,1.15h-15.25l-8.79-23.96-1.22-1.28-46.88.1-10.11,25.14h-15.25ZM738,74.5h37.5l-19.24-51.5-18.26,51.5Z"/>
  <path class="cls-3" d="M618,0c-.16.49.5,1.08.5,1.25v33.75c12.7-5.57,26.54-9.9,40.51-6.26,8.89,2.31,17.49,12.15,17.49,21.51v63.25h-15v-60.25c0-.22-1.18-3.56-1.4-4.1-5.08-12.09-25.91-7.94-35.57-4.38-2.06.76-4.29,1.59-6.02,2.98v65l-.75.75h-14.25V.75l.75-.75h13.75Z"/>
  <path class="cls-8" d="M140,76.5h-55c-.37,7.92,1.28,17.76,8.98,21.77,8.06,4.2,20.91,3.01,29.7,1.66,4.68-.72,9.11-2.46,13.82-2.93v11.25c0,1.23-5.7,3.24-6.89,3.61-14.64,4.49-40.96,6.18-52.11-6.25-12.16-13.55-12.06-52.68-.98-66.85s40.12-14.95,53.24-5.26c11.37,8.4,11.17,30.41,9.25,43ZM127,64v-8.75c0-1.32-2.52-7.22-3.5-8.5-6.2-8.06-27.32-7.59-34.02-.52-3.99,4.21-5.14,12.17-4.98,17.77h42.5Z"/>
  <path class="cls-3" d="M215.5,113.5h-13.25c-1.55-.68-.2-6.44-1.01-6.51-3.36,1.22-5.99,3.2-9.49,4.51-24.8,9.29-47.57,3.23-44.75-27.25,2.46-26.69,35.45-20.3,53.99-19.26v-7.75c0-.55-1.26-6.12-1.53-6.97-3.04-9.55-15.43-9.51-23.74-9.3-3.86.1-9.11.52-12.95,1.05-.91.13-7.78,2.6-7.78.72v-11.5c0-.24.97-.99,1.37-1.13,1.2-.42,5.99-1.28,7.5-1.5,12.26-1.76,34.47-3.28,44.07,5.68,3.45,3.22,7.55,11.79,7.55,16.45v62.75ZM200.95,77.55c-1.57-1.85-26.95-1.71-30.57-.93-14.12,3.07-12.44,23.45,1.88,24.87,9.13.91,21.57-1.52,28.65-7.34l.04-16.6Z"/>
  <path class="cls-8" d="M359,113.5h-14.25l-.75-.75v-60c0-2.88-3.72-7.37-6.13-8.87-10.08-6.26-27.53-1.24-36.87,4.87v64.75h-15V30.25l.75-.75h12l.67.83c.41,1.29-.56,5.89.84,6.17,11.16-7.57,24.49-10.6,37.93-8.44,20.49,3.29,20.92,19.76,21.34,36.71.34,14.06,1.1,32.05,0,46-.08.96-.29,1.81-.52,2.73Z"/>
  <path class="cls-3" d="M565,9v20c.49-.16,1.08.5,1.25.5h28.75v11.75l-.75.75h-28.5l-.75.75v42c0,2.29.95,7.83,1.97,10.03,2.31,5.01,9.2,6.48,14.3,6.71,3.78.17,8.13-1.42,11.98-1.53,1.01-.03,2.13-.15,2.76.78v11c-6.97,3.85-19.38,4.27-27.11,2.61-15.49-3.32-18.15-15.04-18.88-29.12s.54-28.99,0-43.24h-11.75c-.71-.44-.69-1-.78-1.72-.21-1.75-.27-7.92.03-9.53.1-.56.25-.94.75-1.25h11c.2,0,1.14-.52,1.24-.89,1.46-6.33.43-13.64,2.76-19.61h11.75Z"/>
  <path class="cls-7" d="M15,7v92c.49-.16,1.08.5,1.25.5h48.5l.75.75v12.5l-.75.75H0V7h15Z"/>
  <path class="cls-8" d="M277.5,28.5v14.5c-10.62-.68-22.46-.55-31.5,5.75v64.75h-14.25l-.75-.75V30.75c0-.17.66-.76.5-1.25h13.5c.79,1.73.27,3.61.5,5.27.1.74-.28.8.76.75,1.77-.09,6.54-2.93,8.77-3.74,1.8-.66,9.95-3.27,11.23-3.27h11.25Z"/>
  <polygon class="cls-6" points="829.5 7 829.5 113.5 814.75 113.5 814 112.75 814 7.75 814.75 7 829.5 7"/>
  <polygon class="cls-7" points="514.5 113.5 514.5 29.5 528.75 29.5 529.5 30.25 529.5 112.75 528.75 113.5 514.5 113.5"/>
  <path class="cls-4" d="M529.5,0v16h-14.25c-.09,0-1.25-1.16-1.25-1.25V.75l.75-.75h14.75Z"/>
  <path class="cls-6" d="M703.5,99v14.5h-14.25l-.75-.75v-12.5c0-.17.66-.76.5-1.25h14.5Z"/>
  <polygon class="cls-5" points="738 74.5 756.26 23 775.5 74.5 738 74.5"/>
  <path class="cls-2" d="M127,64h-42.5c-.17-5.6.99-13.56,4.98-17.77,6.7-7.07,27.82-7.54,34.02.52.98,1.28,3.5,7.18,3.5,8.5v8.75Z"/>
  <path class="cls-2" d="M200.95,77.55l-.04,16.6c-7.07,5.82-19.52,8.25-28.65,7.34-14.32-1.42-15.99-21.8-1.88-24.87,3.62-.79,29-.92,30.57.93Z"/>
</svg>